# xmcd
# 
# Track frame offsets:
#     150
#     23646
#     45973
#     59833
#     83329
# 
# Disc length: 1408
# 
# Revision: 0
# Processed by: cddbd v1.5.2PL0 Copyright (c) Steve Scherf et al.
# Submitted via: fre:ac v1.0.17
# 
DISCID=2f057e05
DTITLE=川島綠輝 - 「響け！ユーフォニアム」キャラクターソングVol.3
DYEAR=2015
DGENRE=JPop
TTITLE0=流線コントラスト
TTITLE1=I LOVE MUSIC
TTITLE2=北宇治四重奏第3番 コントラバス
TTITLE3=流線コントラスト(OFF VOCAL)
TTITLE4=I LOVE MUSIC(OFF VOCAL)
EXTD=
EXTT0=
EXTT1=
EXTT2=
EXTT3=
EXTT4=
PLAYORDER=
